<svg xmlns="http://www.w3.org/2000/svg" width="58" height="12" viewBox="0 0 58 12"><defs><clipPath id="kkk7a"><path d="M36.83 3.35h6.015v8.598H36.83z"/></clipPath><clipPath id="kkk7b"><path d="M36.83 3.35h6.015v8.598H36.83z"/></clipPath><clipPath id="kkk7c"><path d="M6.44.13h3.706v8.571H6.44z"/></clipPath><clipPath id="kkk7d"><path d="M10.67.13h3.706v8.571H10.67z"/></clipPath><clipPath id="kkk7e"><path d="M49.36 1.2h8.505v7.572H49.36z"/></clipPath></defs><g><g><g><path fill="#373737" d="M29.12 4.05c.538.541.847 1.254.847 2.005 0 .752-.296 1.464-.846 2.005a2.888 2.888 0 0 1-2.041.817c-.51 0-.967-.171-1.37-.527l-.067-.053v3.178l-1.463.448V3.34h1.463v.422l.068-.066c.43-.41.926-.475 1.369-.475.765.013 1.49.303 2.04.83m-.627 2.005c0-.778-.655-1.437-1.418-1.437-.763 0-1.418.66-1.418 1.437 0 .765.655 1.437 1.418 1.437.763 0 1.418-.659 1.418-1.437"/></g><g><path fill="#373737" d="M31.336 8.056a2.843 2.843 0 0 1-.846-2.004c0-.752.295-1.464.846-2.004a2.889 2.889 0 0 1 2.04-.818c.51 0 .967.171 1.37.527l.067.053v-.475h1.463v5.433h-1.463v-.422l-.067.066c-.43.41-.927.475-1.37.475-.765-.013-1.49-.29-2.04-.83m.617-2c0 .78.658 1.442 1.424 1.442.778 0 1.423-.661 1.423-1.442 0-.767-.658-1.442-1.423-1.442-.78 0-1.424.674-1.424 1.442"/></g><g><path fill="#373737" d="M31.336 8.056a2.843 2.843 0 0 1-.846-2.004c0-.752.295-1.464.846-2.004a2.889 2.889 0 0 1 2.04-.818c.51 0 .967.171 1.37.527l.067.053v-.475h1.463v5.433h-1.463v-.422l-.067.066c-.43.41-.927.475-1.37.475-.765-.013-1.49-.29-2.04-.83m.617-2c0 .78.658 1.442 1.424 1.442.778 0 1.423-.661 1.423-1.442 0-.767-.658-1.442-1.423-1.442-.78 0-1.424.674-1.424 1.442"/></g><g><g/><g clip-path="url(#kkk7a)"><path fill="#373737" d="M37.73 11.935l1.315-3.139L36.83 3.35h1.624l1.383 3.376 1.397-3.376h1.61l-3.53 8.598h-1.585z"/></g></g><g><g/><g><path fill="#373737" d="M37.73 11.935l1.315-3.139L36.83 3.35h1.624l1.383 3.376 1.397-3.376h1.61l-3.53 8.598h-1.585z"/></g></g><g><path fill="#373737" d="M2.82 8.825c-.752 0-1.464-.29-2.001-.804A2.726 2.726 0 0 1 0 6.056c0-.738.282-1.437.806-1.965a2.873 2.873 0 0 1 2-.791c.765 0 1.41.396 1.813.725l.12.093v-.713h.9v5.302h-.9v-.713l-.12.093c-.39.343-1.034.738-1.8.738m-.005-4.683c-1.057 0-1.928.86-1.928 1.92a1.929 1.929 0 0 0 3.857 0c0-1.06-.87-1.92-1.929-1.92"/></g><g><g/><g><path fill="#373737" d="M7.259 8.701V4.244H6.44v-.83h.819v-1.57C7.259.882 8.038.13 9.018.13h1.128l-.229.83h-.872c-.47 0-.9.423-.9.897V3.4H9.85v.831H8.16v4.47z"/></g></g><g><g/><g><path fill="#373737" d="M13.248 8.701c-.98 0-1.759-.777-1.759-1.727v-2.73h-.819v-.83h.819V.13h.9V3.4h1.691v.831h-1.705v2.704c0 .487.43.923.9.923h.872l.229.83h-1.128z"/></g></g><g><path fill="#373737" d="M17.1 8.797c-.697 0-1.342-.29-1.812-.805a2.686 2.686 0 0 1-.725-1.661c-.013-.08-.013-.159-.013-.25a2.752 2.752 0 0 1 .738-1.899 2.5 2.5 0 0 1 1.826-.792c.698 0 1.343.277 1.84.791.349.383.577.818.671 1.28.067.408.067.659.067.777h-4.27v.093c.122.936.847 1.648 1.679 1.661.51-.026 1.02-.224 1.37-.554l.751.436a3.107 3.107 0 0 1-.658.527c-.43.237-.926.37-1.463.396m0-4.616c-.698 0-1.341.488-1.596 1.227l-.014.013-.053.105h3.326l-.067-.118c-.242-.739-.885-1.227-1.596-1.227"/></g><g><path fill="#373737" d="M20.56 8.707V3.405h.9v.673l.12-.132c.323-.343 1.249-.62 1.88-.646l-.215.884c-.98.026-1.785.778-1.785 1.7v2.823z"/></g><g><g/><g><path fill="#2a78ac" d="M50.573 4.836c.537-.303 1.034-.593 1.571-.896-.174-.304-.134-.225-.295-.515-.161-.303-.108-.422.241-.422 1.007-.013 2.014-.013 3.021 0 .296 0 .376.132.215.383-.497.857-1.007 1.714-1.504 2.571-.16.277-.309.277-.47 0-.174-.277-.134-.21-.308-.514-.524.303-1.047.593-1.571.897.027.079.067.131.107.184.39.66.564.976.967 1.635.47.778 1.463.818 2.04.106.068-.08.121-.158.175-.25.953-1.623 1.907-3.231 2.846-4.853.095-.159.188-.343.229-.528a1.173 1.173 0 0 0-1.155-1.424c-2.04-.013-4.081-.013-6.109 0-.926.013-1.49.923-1.074 1.727.134.264.296.515.443.765.255.488.322.607.631 1.134"/></g></g><g><path fill="#124678" d="M46.047 9.837v-1.78h-.591c-.35 0-.416-.119-.242-.41a158.5 158.5 0 0 1 1.504-2.544c.148-.25.282-.277.443 0 .497.857 1.007 1.701 1.49 2.558.161.277.08.396-.228.396h-.604v1.78h2.121c.913-.013 1.45-.83 1.101-1.662-.04-.092-.08-.184-.134-.263-.94-1.61-1.88-3.218-2.82-4.814a1.928 1.928 0 0 0-.349-.448 1.197 1.197 0 0 0-1.826.264 401.461 401.461 0 0 0-3.034 5.156c-.456.791.067 1.714.967 1.767.295.013 1.557 0 2.202 0"/></g></g></g></svg>